REM DIRINDEX 1\2,1\4,1\5,1\6,1\7,1\3\8,1\3\9,1\3\10
REM DIRNAME folder01,folder02,folder03,folder04,folder05,folder06,folder07,folder08,folder09,folder10
TITLE ""
FILE "DB4500_5th_6C_47.mp3" MP3
  TRACK 01 AUDIO
    TITLE "0:"
    INDEX 01 00:00:00
  TRACK 02 AUDIO
    TITLE "8:cjc113_5182"
    INDEX 01 00:00:01
  TRACK 03 AUDIO
    TITLE "0:"
    INDEX 01 00:01:17
  TRACK 04 AUDIO
    TITLE "9:cjc113_5183"
    INDEX 01 00:01:30
  TRACK 05 AUDIO
    TITLE "0:"
    INDEX 01 00:03:04
  TRACK 06 AUDIO
    TITLE "10:cjc113_5184"
    INDEX 01 00:03:17
  TRACK 07 AUDIO
    TITLE "0:"
    INDEX 01 00:05:67
  TRACK 08 AUDIO
    TITLE "8:cjc113_5185"
    INDEX 01 00:06:33
  TRACK 09 AUDIO
    TITLE "0:"
    INDEX 01 00:07:56
  TRACK 10 AUDIO
    TITLE "9:cjc113_5186"
    INDEX 01 00:07:74
  TRACK 11 AUDIO
    TITLE "0:"
    INDEX 01 00:09:47
  TRACK 12 AUDIO
    TITLE "10:cjc113_5187"
    INDEX 01 00:09:65
  TRACK 13 AUDIO
    TITLE "0:"
    INDEX 01 00:13:65
  TRACK 14 AUDIO
    TITLE "8:cjc113_5188"
    INDEX 01 00:14:31
  TRACK 15 AUDIO
    TITLE "0:"
    INDEX 01 00:15:54
  TRACK 16 AUDIO
    TITLE "9:cjc113_5189"
    INDEX 01 00:15:72
  TRACK 17 AUDIO
    TITLE "0:"
    INDEX 01 00:17:45
  TRACK 18 AUDIO
    TITLE "10:cjc113_5190"
    INDEX 01 00:17:65
  TRACK 19 AUDIO
    TITLE "0:"
    INDEX 01 00:21:02
  TRACK 20 AUDIO
    TITLE "8:cjc113_5191"
    INDEX 01 00:21:41
  TRACK 21 AUDIO
    TITLE "0:"
    INDEX 01 00:22:50
  TRACK 22 AUDIO
    TITLE "9:cjc113_5192"
    INDEX 01 00:22:68
  TRACK 23 AUDIO
    TITLE "0:"
    INDEX 01 00:24:12
  TRACK 24 AUDIO
    TITLE "10:cjc113_5193"
    INDEX 01 00:24:29
  TRACK 25 AUDIO
    TITLE "0:"
    INDEX 01 00:26:60
  TRACK 26 AUDIO
    TITLE "8:cjc113_5194"
    INDEX 01 00:27:24
  TRACK 27 AUDIO
    TITLE "0:"
    INDEX 01 00:28:45
  TRACK 28 AUDIO
    TITLE "9:cjc113_5195"
    INDEX 01 00:28:57
  TRACK 29 AUDIO
    TITLE "0:"
    INDEX 01 00:29:72
  TRACK 30 AUDIO
    TITLE "10:cjc113_5196"
    INDEX 01 00:30:12
  TRACK 31 AUDIO
    TITLE "0:"
    INDEX 01 00:34:02
  TRACK 32 AUDIO
    TITLE "8:cjc113_5197"
    INDEX 01 00:34:42
  TRACK 33 AUDIO
    TITLE "0:"
    INDEX 01 00:35:55
  TRACK 34 AUDIO
    TITLE "9:cjc113_5198"
    INDEX 01 00:35:70
  TRACK 35 AUDIO
    TITLE "0:"
    INDEX 01 00:37:18
  TRACK 36 AUDIO
    TITLE "10:cjc113_5199"
    INDEX 01 00:37:34
  TRACK 37 AUDIO
    TITLE "0:"
    INDEX 01 00:40:19
  TRACK 38 AUDIO
    TITLE "8:cjc113_5200"
    INDEX 01 00:40:58
  TRACK 39 AUDIO
    TITLE "0:"
    INDEX 01 00:41:69
  TRACK 40 AUDIO
    TITLE "9:cjc113_5201"
    INDEX 01 00:42:08
  TRACK 41 AUDIO
    TITLE "0:"
    INDEX 01 00:43:48
  TRACK 42 AUDIO
    TITLE "10:cjc113_5202"
    INDEX 01 00:43:66
  TRACK 43 AUDIO
    TITLE "0:"
    INDEX 01 00:47:23
  TRACK 44 AUDIO
    TITLE "8:cjc113_5203"
    INDEX 01 00:47:60
  TRACK 45 AUDIO
    TITLE "0:"
    INDEX 01 00:48:67
  TRACK 46 AUDIO
    TITLE "9:cjc113_5204"
    INDEX 01 00:49:08
  TRACK 47 AUDIO
    TITLE "0:"
    INDEX 01 00:50:46
  TRACK 48 AUDIO
    TITLE "10:cjc113_5205"
    INDEX 01 00:50:62
  TRACK 49 AUDIO
    TITLE "0:"
    INDEX 01 00:54:17
  TRACK 50 AUDIO
    TITLE "8:cjc113_5206"
    INDEX 01 00:54:54
  TRACK 51 AUDIO
    TITLE "0:"
    INDEX 01 00:55:59
  TRACK 52 AUDIO
    TITLE "9:cjc113_5207"
    INDEX 01 00:56:02
  TRACK 53 AUDIO
    TITLE "0:"
    INDEX 01 00:57:19
  TRACK 54 AUDIO
    TITLE "10:cjc113_5208"
    INDEX 01 00:57:29
  TRACK 55 AUDIO
    TITLE "0:"
    INDEX 01 00:59:59
  TRACK 56 AUDIO
    TITLE "8:cjc113_5209"
    INDEX 01 01:00:31
  TRACK 57 AUDIO
    TITLE "0:"
    INDEX 01 01:01:62
  TRACK 58 AUDIO
    TITLE "9:cjc113_5210"
    INDEX 01 01:02:03
  TRACK 59 AUDIO
    TITLE "0:"
    INDEX 01 01:03:55
  TRACK 60 AUDIO
    TITLE "10:cjc113_5211"
    INDEX 01 01:03:67
  TRACK 61 AUDIO
    TITLE "0:"
    INDEX 01 01:08:52
  TRACK 62 AUDIO
    TITLE "8:cjc113_5212"
    INDEX 01 01:09:18
  TRACK 63 AUDIO
    TITLE "0:"
    INDEX 01 01:10:39
  TRACK 64 AUDIO
    TITLE "9:cjc113_5213"
    INDEX 01 01:10:53
  TRACK 65 AUDIO
    TITLE "0:"
    INDEX 01 01:12:21
  TRACK 66 AUDIO
    TITLE "10:cjc113_5214"
    INDEX 01 01:12:38
  TRACK 67 AUDIO
    TITLE "0:"
    INDEX 01 01:15:17
  TRACK 68 AUDIO
    TITLE "8:cjc113_5215"
    INDEX 01 01:15:56
  TRACK 69 AUDIO
    TITLE "0:"
    INDEX 01 01:17:06
  TRACK 70 AUDIO
    TITLE "9:cjc113_5216"
    INDEX 01 01:17:22
  TRACK 71 AUDIO
    TITLE "0:"
    INDEX 01 01:18:68
  TRACK 72 AUDIO
    TITLE "10:cjc113_5217"
    INDEX 01 01:19:07
  TRACK 73 AUDIO
    TITLE "0:"
    INDEX 01 01:22:58
  TRACK 74 AUDIO
    TITLE "8:cjc113_5218"
    INDEX 01 01:23:22
  TRACK 75 AUDIO
    TITLE "0:"
    INDEX 01 01:24:24
  TRACK 76 AUDIO
    TITLE "9:cjc113_5219"
    INDEX 01 01:24:39
  TRACK 77 AUDIO
    TITLE "0:"
    INDEX 01 01:26:05
  TRACK 78 AUDIO
    TITLE "10:cjc113_5220"
    INDEX 01 01:26:21
  TRACK 79 AUDIO
    TITLE "0:"
    INDEX 01 01:28:57
